<svg width="265" height="60" viewBox="0 0 265 60" fill="none" xmlns="http://www.w3.org/2000/svg">
<path d="M118.158 14.6012C121.571 14.6012 124.611 15.3212 127.278 16.7612C129.944 18.1479 132.051 20.2545 133.597 23.0812C135.144 25.9079 135.918 29.3479 135.918 33.4012V59.2412H128.718V34.4412C128.718 30.0679 127.624 26.7345 125.438 24.4412C123.304 22.0945 120.398 20.9212 116.718 20.9212C112.931 20.9212 109.918 22.1479 107.678 24.6012C105.438 27.0012 104.318 30.4945 104.318 35.0812V59.2412H97.1175V34.4412C97.1175 30.0679 96.0242 26.7345 93.8375 24.4412C91.7042 22.0945 88.7975 20.9212 85.1175 20.9212C81.3308 20.9212 78.3175 22.1479 76.0775 24.6012C73.8375 27.0012 72.7175 30.4945 72.7175 35.0812V59.2412H65.4375V15.4012H72.7175V21.7212C74.1575 19.4279 76.0775 17.6679 78.4775 16.4412C80.9308 15.2145 83.6242 14.6012 86.5575 14.6012C90.2375 14.6012 93.4908 15.4279 96.3175 17.0812C99.1442 18.7345 101.251 21.1612 102.638 24.3612C103.864 21.2679 105.891 18.8679 108.718 17.1612C111.544 15.4545 114.691 14.6012 118.158 14.6012Z" fill="#FDFEFF"/>
<path d="M192.638 14.6012C196.051 14.6012 199.091 15.3212 201.758 16.7612C204.424 18.1479 206.531 20.2545 208.078 23.0812C209.624 25.9079 210.398 29.3479 210.398 33.4012V59.2412H203.198V34.4412C203.198 30.0679 202.104 26.7345 199.918 24.4412C197.784 22.0945 194.878 20.9212 191.198 20.9212C187.411 20.9212 184.398 22.1479 182.158 24.6012C179.918 27.0012 178.798 30.4945 178.798 35.0812V59.2412H171.598V34.4412C171.598 30.0679 170.504 26.7345 168.318 24.4412C166.184 22.0945 163.278 20.9212 159.598 20.9212C155.811 20.9212 152.798 22.1479 150.558 24.6012C148.318 27.0012 147.198 30.4945 147.198 35.0812V59.2412H139.918V15.4012H147.198V21.7212C148.638 19.4279 150.558 17.6679 152.958 16.4412C155.411 15.2145 158.104 14.6012 161.038 14.6012C164.718 14.6012 167.971 15.4279 170.798 17.0812C173.624 18.7345 175.731 21.1612 177.118 24.3612C178.344 21.2679 180.371 18.8679 183.198 17.1612C186.024 15.4545 189.171 14.6012 192.638 14.6012Z" fill="#FDFEFF"/>
<path d="M243.358 59.8812C239.305 59.8812 235.651 58.9745 232.398 57.1612C229.145 55.3479 226.585 52.7612 224.718 49.4012C222.905 45.9879 221.998 42.0145 221.998 37.4812C221.998 33.0012 222.931 29.0812 224.798 25.7212C226.665 22.3079 229.225 19.7212 232.478 17.9612C235.785 16.1479 239.465 15.2412 243.518 15.2412C247.571 15.2412 251.225 16.1479 254.478 17.9612C257.731 19.7212 260.265 22.2812 262.078 25.6412C263.945 29.0012 264.878 32.9479 264.878 37.4812C264.878 42.0145 263.945 45.9879 262.078 49.4012C260.211 52.7612 257.625 55.3479 254.318 57.1612C251.065 58.9745 247.411 59.8812 243.358 59.8812ZM243.358 56.6812C246.505 56.6812 249.438 55.9879 252.158 54.6012C254.931 53.1612 257.145 51.0012 258.798 48.1212C260.451 45.2412 261.278 41.6945 261.278 37.4812C261.278 33.3212 260.451 29.8012 258.798 26.9212C257.145 24.0412 254.958 21.9079 252.238 20.5212C249.518 19.0812 246.585 18.3612 243.438 18.3612C240.291 18.3612 237.358 19.0812 234.638 20.5212C231.971 21.9079 229.811 24.0412 228.158 26.9212C226.505 29.8012 225.678 33.3212 225.678 37.4812C225.678 41.6945 226.478 45.2412 228.078 48.1212C229.731 51.0012 231.891 53.1612 234.558 54.6012C237.278 55.9879 240.211 56.6812 243.358 56.6812Z" fill="#FDFEFF"/>
<path d="M46.1602 59.2412L34.8008 52.6826V52.6816C33.4141 54.8683 31.4666 56.6276 28.96 57.9609C26.4533 59.2942 23.5468 59.9609 20.2402 59.9609C16.5069 59.9609 13.0933 59.001 10 57.0811C6.90682 55.1611 4.4539 52.4675 2.64062 49.001C0.880653 45.481 0 41.4542 0 36.9209C4.14608e-05 32.441 0.880666 28.4676 2.64062 25.001C4.45391 21.5345 6.90683 18.8676 10 17.001C13.0933 15.1343 16.5337 14.2012 20.3203 14.2012C23.2003 14.2012 25.9472 14.8411 28.5605 16.1211C31.1738 17.3478 33.2541 19.0011 34.8008 21.0811V0.0410156H46.1602V59.2412ZM23.1201 24.041C21.0402 24.0411 19.1203 24.5482 17.3604 25.5615C15.6004 26.5749 14.16 28.0677 13.04 30.041C11.9734 31.9609 11.4405 34.2544 11.4404 36.9209C11.4404 39.5874 11.9735 41.9343 13.04 43.9609C14.16 45.9343 15.6004 47.4548 17.3604 48.5215C19.1736 49.5881 21.0936 50.1211 23.1201 50.1211C25.1999 50.1211 27.1468 49.6147 28.96 48.6016C30.7733 47.5349 32.2136 46.0411 33.2803 44.1211C34.3469 42.1478 34.8799 39.801 34.8799 37.0811C34.8799 34.3611 34.3469 32.0411 33.2803 30.1211C32.2136 28.1478 30.7733 26.6549 28.96 25.6416C27.1467 24.575 25.2001 24.041 23.1201 24.041Z" fill="#FDFEFF"/>
<path d="M217.998 2.11816V59.2412H214.398V0.0410156H214.4L217.998 2.11816Z" fill="#FDFEFF"/>
<path d="M61.6602 6.19043C61.362 6.80646 60.9468 7.3714 60.4131 7.88379C59.2521 8.99637 57.7762 9.55273 55.9863 9.55273C54.1965 9.5527 52.6967 8.99635 51.4873 7.88379C50.3264 6.72285 49.7462 5.29551 49.7461 3.60254C49.7461 2.20329 50.1436 1.00279 50.9365 0L61.6602 6.19043Z" fill="#267D85"/>
<path d="M61.4338 14.9213V59.2413H50.2338V14.9213H61.4338Z" fill="#FDFEFF"/>
</svg>
