<svg width="62" height="60" viewBox="0 0 62 60" fill="none" xmlns="http://www.w3.org/2000/svg">
<path d="M46.1602 59.2412L34.8008 52.6826V52.6816C33.4141 54.8683 31.4666 56.6276 28.96 57.9609C26.4533 59.2942 23.5468 59.9609 20.2402 59.9609C16.5069 59.9609 13.0933 59.001 10 57.0811C6.90682 55.1611 4.4539 52.4675 2.64062 49.001C0.880653 45.481 0 41.4542 0 36.9209C4.14608e-05 32.441 0.880666 28.4676 2.64062 25.001C4.45391 21.5345 6.90683 18.8676 10 17.001C13.0933 15.1343 16.5337 14.2012 20.3203 14.2012C23.2003 14.2012 25.9472 14.8411 28.5605 16.1211C31.1738 17.3478 33.2541 19.0011 34.8008 21.0811V0.0410156H46.1602V59.2412ZM23.1201 24.041C21.0402 24.0411 19.1203 24.5482 17.3604 25.5615C15.6004 26.5749 14.16 28.0677 13.04 30.041C11.9734 31.9609 11.4405 34.2544 11.4404 36.9209C11.4404 39.5874 11.9735 41.9343 13.04 43.9609C14.16 45.9343 15.6004 47.4548 17.3604 48.5215C19.1736 49.5881 21.0936 50.1211 23.1201 50.1211C25.1999 50.1211 27.1468 49.6147 28.96 48.6016C30.7733 47.5349 32.2136 46.0411 33.2803 44.1211C34.3469 42.1478 34.8799 39.801 34.8799 37.0811C34.8799 34.3611 34.3469 32.0411 33.2803 30.1211C32.2136 28.1478 30.7733 26.6549 28.96 25.6416C27.1467 24.575 25.2001 24.041 23.1201 24.041Z" fill="#1F2124"/>
<path d="M61.6602 6.19043C61.362 6.80646 60.9468 7.3714 60.4131 7.88379C59.2521 8.99637 57.7762 9.55273 55.9863 9.55273C54.1965 9.5527 52.6967 8.99635 51.4873 7.88379C50.3264 6.72285 49.7462 5.29551 49.7461 3.60254C49.7461 2.20329 50.1436 1.00279 50.9365 0L61.6602 6.19043Z" fill="#267D85"/>
<path d="M61.4338 14.9213V59.2413H50.2338V14.9213H61.4338Z" fill="#1F2124"/>
</svg>
